<svg xmlns="http://www.w3.org/2000/svg" xmlns:xlink="http://www.w3.org/1999/xlink" width="14" height="14" viewBox="0 0 14 14">
  <defs>
    <clipPath id="clip-path">
      <rect id="Rectangle_148065" data-name="Rectangle 148065" width="14" height="14" transform="translate(21 696)" fill="#048919" stroke="#707070" stroke-width="1"/>
    </clipPath>
  </defs>
  <g id="Mask_Group_114" data-name="Mask Group 114" transform="translate(-21 -696)" clip-path="url(#clip-path)">
    <g id="svgexport-17_15_" data-name="svgexport-17 (15)" transform="translate(17.435 692.435)">
      <path id="Path_84180" data-name="Path 84180" d="M10.566,3.566a7,7,0,1,0,7,7A7.008,7.008,0,0,0,10.566,3.566Zm0,13.339a6.339,6.339,0,1,1,6.34-6.339,6.347,6.347,0,0,1-6.34,6.339Z" fill="#048919"/>
      <path id="Path_84181" data-name="Path 84181" d="M10.551,12.485h-.021a.8.8,0,0,1-.754-.544.344.344,0,0,0-.32-.25.331.331,0,0,0-.317.427,1.459,1.459,0,0,0,1.131,1v.3a.33.33,0,1,0,.66,0V13.1a1.48,1.48,0,0,0,.865-2.287,1.324,1.324,0,0,0-1.184-.582A.8.8,0,0,1,9.833,9.23a.788.788,0,0,1,.556-.557.8.8,0,0,1,.974.543.3.3,0,0,0,.279.225h.09a.289.289,0,0,0,.275-.368,1.46,1.46,0,0,0-1.077-1.046V7.711a.33.33,0,0,0-.66,0v.316A1.456,1.456,0,0,0,9.194,9.821,1.505,1.505,0,0,0,10.635,10.9a.8.8,0,0,1,.76.808.827.827,0,0,1-.844.781Z" fill="#048919"/>
      <path id="Path_84182" data-name="Path 84182" d="M10.566,5.234A5.334,5.334,0,0,0,7.444,6.247a.33.33,0,1,0,.391.532,4.726,4.726,0,1,1-.892.85A.325.325,0,0,0,6.9,7.187h0a.327.327,0,0,0-.473.026,5.325,5.325,0,1,0,4.135-1.978Z" fill="#048919"/>
    </g>
  </g>
</svg>
