<svg xmlns="http://www.w3.org/2000/svg" xmlns:xlink="http://www.w3.org/1999/xlink" width="24" height="24" viewBox="0 0 24 24">
  <defs>
    <clipPath id="clip-path">
      <rect id="Rectangle_6013" data-name="Rectangle 6013" width="24" height="24" transform="translate(104 872)" fill="#282623" stroke="#c7c7c7" stroke-width="1"/>
    </clipPath>
  </defs>
  <g id="Mask_Group_2" data-name="Mask Group 2" transform="translate(-104 -872)" clip-path="url(#clip-path)">
    <g id="home-line" transform="translate(104 872.005)">
      <path id="Path_18817" data-name="Path 18817" d="M9.642,2.126a3.583,3.583,0,0,1,4.718,0l6.361,5.565a4.538,4.538,0,0,1,1.55,3.416v8.061a3.583,3.583,0,0,1-3.583,3.583H5.313A3.583,3.583,0,0,1,1.73,19.167V11.107A4.538,4.538,0,0,1,3.28,7.691ZM13.416,3.2a2.15,2.15,0,0,0-2.831,0L4.224,8.769a3.105,3.105,0,0,0-1.061,2.337v8.061a2.15,2.15,0,0,0,2.15,2.15H18.688a2.15,2.15,0,0,0,2.15-2.15V11.107A3.105,3.105,0,0,0,19.777,8.77Z" fill="#282623" fill-rule="evenodd"/>
      <path id="Path_18818" data-name="Path 18818" d="M9.25,16.864a.75.75,0,0,1,.75-.75h4a.75.75,0,0,1,0,1.5H10A.75.75,0,0,1,9.25,16.864Z" fill="#282623" fill-rule="evenodd"/>
    </g>
  </g>
</svg>
