<svg xmlns="http://www.w3.org/2000/svg" xmlns:xlink="http://www.w3.org/1999/xlink" width="24" height="24" viewBox="0 0 24 24">
  <defs>
    <clipPath id="clip-path">
      <rect id="Rectangle_148046" data-name="Rectangle 148046" width="24" height="24" transform="translate(26.806 239)" stroke="#707070" stroke-width="1"/>
    </clipPath>
    <clipPath id="clip-path-2">
      <rect id="Rectangle_148048" data-name="Rectangle 148048" width="12" height="12" transform="translate(32 340)" fill="#fff" stroke="#707070" stroke-width="1"/>
    </clipPath>
  </defs>
  <g id="Group_164845" data-name="Group 164845" transform="translate(-26 -330)">
    <g id="Mask_Group_100" data-name="Mask Group 100" transform="translate(-0.806 91)" clip-path="url(#clip-path)">
      <g id="svgexport-17_7_" data-name="svgexport-17 (7)" transform="translate(29.665 239)">
        <path id="Path_84116" data-name="Path 84116" d="M21.069,3.227V4.578a.819.819,0,0,1-.818.816H3.41a.819.819,0,0,1-.818-.816V3.227a.819.819,0,0,1,.818-.816h16.84A.819.819,0,0,1,21.069,3.227ZM18.552,1.915H5.107L5.866.68A1.391,1.391,0,0,1,7.046.018h9.567A1.4,1.4,0,0,1,17.8.68ZM19.74,5.89,17.773,22.6a1.389,1.389,0,0,1-1.379,1.227H7.264A1.388,1.388,0,0,1,5.888,22.6L3.921,5.89Z" transform="translate(-2.592 -0.018)"/>
      </g>
    </g>
    <g id="Mask_Group_102" data-name="Mask Group 102" transform="translate(0 -2)" clip-path="url(#clip-path-2)">
      <g id="svgexport-17_8_" data-name="svgexport-17 (8)" transform="translate(32 340)">
        <g id="Group_163074" data-name="Group 163074">
          <path id="Path_84118" data-name="Path 84118" d="M11.9,9.122l-.78-1.1.279-.2a.6.6,0,0,0-.2-1.064l-1.085-.276.094-1.116a.591.591,0,0,0-.3-.569c-.447-.255-.781.163-.921.231C8.267,4.085,8.255,3.821,7.9,3.76s-.49.208-1.394.8L8.093,6.8H2.177v4.317a.879.879,0,0,0,.878.878H8.671a.879.879,0,0,0,.878-.878V8.841l1.229,1.727,1-.712A.527.527,0,0,0,11.9,9.122ZM11.3,7.3c.044.233-.2.292-.379.444l-.6-.84c.656.2.928.139.976.4ZM9.739,5.106c.226.129.076.355.054,1.052l-.6-.84c.2-.114.338-.33.544-.212ZM6.993,4.645l.715-.509a.176.176,0,0,1,.245.041l.753,1.058h0l.7.982-.858.611ZM5.208,11.639H3.055a.527.527,0,0,1-.527-.527V7.146H5.208Zm.959,0H5.559V7.146h.608Zm3.03-.527a.527.527,0,0,1-.527.527H6.518V7.146H8.342l.855,1.2ZM9.1,7.61l-.353-.5L9.608,6.5l.353.5Zm2.472,1.96-.715.509L9.307,7.9l.858-.611,1.452,2.04A.176.176,0,0,1,11.575,9.57ZM2.353,3.721l1.454.764L3.529,2.866,4.706,1.719,3.08,1.483,2.353.01,1.626,1.483,0,1.719,1.176,2.866.9,4.485ZM.754,1.964l1.1-.16.494-1,.494,1,1.1.16-.8.779.189,1.1-.988-.519-.988.519.189-1.1Z" fill="#fff"/>
          <path id="Path_84119" data-name="Path 84119" d="M4.8,5.766l.516.73.265-.854.854-.265L5.7,4.861l.011-.894L5,4.5l-.846-.287.287.846L3.9,5.777Zm-.085-.991.348.118.294-.22,0,.367.3.212L5.3,5.362l-.109.351-.212-.3-.367,0,.22-.294ZM5.985,3.94l.83-.851,1.171.2L7.433,2.237l.553-1.052-1.171.2L5.985.535,5.814,1.712l-1.066.526,1.066.526Zm.15-1.995.1-.655.462.474.652-.112-.308.586.308.586-.652-.112-.462.474-.1-.655-.593-.293ZM1.474,5.266h.351v.351H1.474Zm1.124,0h.351v.351H2.6ZM2.036,4.7h.351v.351H2.036Zm0,1.124h.351v.351H2.036Zm6.6-4.1h.351v.351H8.636Zm1.124,0h.351v.351H9.76ZM9.2,1.169h.351V1.52H9.2Zm0,1.124h.351v.351H9.2Z" fill="#fff"/>
        </g>
      </g>
    </g>
  </g>
</svg>
