<svg xmlns="http://www.w3.org/2000/svg" xmlns:xlink="http://www.w3.org/1999/xlink" width="24" height="24" viewBox="0 0 24 24">
  <defs>
    <clipPath id="clip-path">
      <rect id="Rectangle_148045" data-name="Rectangle 148045" width="24" height="24" transform="translate(26.806 239)" stroke="#707070" stroke-width="1"/>
    </clipPath>
  </defs>
  <g id="Group_164844" data-name="Group 164844" transform="translate(-26 -241)">
    <g id="Mask_Group_99" data-name="Mask Group 99" transform="translate(-0.806 2)" clip-path="url(#clip-path)">
      <g id="svgexport-17_7_" data-name="svgexport-17 (7)" transform="translate(29.665 239)">
        <path id="Path_84113" data-name="Path 84113" d="M21.069,3.227V4.578a.819.819,0,0,1-.818.816H3.41a.819.819,0,0,1-.818-.816V3.227a.819.819,0,0,1,.818-.816h16.84A.819.819,0,0,1,21.069,3.227ZM18.552,1.915H5.107L5.866.68A1.391,1.391,0,0,1,7.046.018h9.567A1.4,1.4,0,0,1,17.8.68ZM19.74,5.89,17.773,22.6a1.389,1.389,0,0,1-1.379,1.227H7.264A1.388,1.388,0,0,1,5.888,22.6L3.921,5.89Z" transform="translate(-2.592 -0.018)"/>
      </g>
    </g>
    <g id="svgexport-17_6_" data-name="svgexport-17 (6)" transform="translate(20.49 228.234)">
      <g id="Group_163073" data-name="Group 163073" transform="translate(11.482 21.4)">
        <path id="Path_84114" data-name="Path 84114" d="M17.654,77.406l.621,1.076a.166.166,0,0,0,.109.078l1.216.264a.167.167,0,0,1,.088.274l-.828.926a.17.17,0,0,0-.041.129l.129,1.236a.164.164,0,0,1-.233.166l-1.138-.507a.153.153,0,0,0-.135,0l-1.138.507a.167.167,0,0,1-.233-.166l.129-1.236a.17.17,0,0,0-.041-.129l-.828-.926a.168.168,0,0,1,.088-.274l1.216-.264a.166.166,0,0,0,.109-.078l.621-1.076A.169.169,0,0,1,17.654,77.406Zm4.408,2.23.3,1.1a.141.141,0,0,0,.078.093l1.014.523a.153.153,0,0,1,.016.264l-.957.621a.154.154,0,0,0-.067.1l-.181,1.128a.151.151,0,0,1-.243.093l-.89-.719a.161.161,0,0,0-.119-.031l-1.128.176a.152.152,0,0,1-.166-.2l.409-1.066a.149.149,0,0,0-.005-.124L19.6,80.578a.154.154,0,0,1,.145-.222l1.143.057a.16.16,0,0,0,.114-.047l.807-.807A.154.154,0,0,1,22.062,79.636Zm-9.105,0-.3,1.1a.141.141,0,0,1-.078.093l-1.014.523a.153.153,0,0,0-.016.264l.957.621a.154.154,0,0,1,.067.1l.181,1.128a.151.151,0,0,0,.243.093l.89-.719a.161.161,0,0,1,.119-.031l1.128.176a.152.152,0,0,0,.166-.2l-.409-1.066A.149.149,0,0,1,14.9,81.6l.517-1.019a.154.154,0,0,0-.145-.222l-1.143.057a.16.16,0,0,1-.114-.047l-.8-.8A.151.151,0,0,0,12.957,79.636Z" transform="translate(-11.482 -74.432)" fill="#fff"/>
        <circle id="Ellipse_13" data-name="Ellipse 13" cx="0.233" cy="0.233" r="0.233" transform="translate(3.488 10.564)" fill="#fff"/>
        <circle id="Ellipse_14" data-name="Ellipse 14" cx="0.336" cy="0.336" r="0.336" transform="translate(7.772 10.342)" fill="#fff"/>
        <circle id="Ellipse_15" data-name="Ellipse 15" cx="0.321" cy="0.321" r="0.321" transform="translate(9.437 2.245)" fill="#fff"/>
        <circle id="Ellipse_16" data-name="Ellipse 16" cx="0.383" cy="0.383" r="0.383" transform="translate(7.208 0)" fill="#fff"/>
        <path id="Path_84115" data-name="Path 84115" d="M62.308,54.222l-.657-.238.119.683ZM60.518,46.1l-.89.44.828.554Zm-1.423,2.2.352-.543-.647-.041Z" transform="translate(-56.352 -44.822)" fill="#fff"/>
      </g>
    </g>
  </g>
</svg>
