<svg xmlns="http://www.w3.org/2000/svg" xmlns:xlink="http://www.w3.org/1999/xlink" width="24" height="24" viewBox="0 0 24 24">
  <defs>
    <clipPath id="clip-path">
      <rect id="Rectangle_148047" data-name="Rectangle 148047" width="24" height="24" transform="translate(26.806 239)" stroke="#707070" stroke-width="1"/>
    </clipPath>
    <clipPath id="clip-path-2">
      <rect id="Rectangle_148049" data-name="Rectangle 148049" width="12" height="12" transform="translate(31 429)" fill="#fff" stroke="#707070" stroke-width="1"/>
    </clipPath>
  </defs>
  <g id="Group_164846" data-name="Group 164846" transform="translate(-26 -419)">
    <g id="Mask_Group_101" data-name="Mask Group 101" transform="translate(-0.806 180)" clip-path="url(#clip-path)">
      <g id="svgexport-17_7_" data-name="svgexport-17 (7)" transform="translate(29.665 239)">
        <path id="Path_84117" data-name="Path 84117" d="M21.069,3.227V4.578a.819.819,0,0,1-.818.816H3.41a.819.819,0,0,1-.818-.816V3.227a.819.819,0,0,1,.818-.816h16.84A.819.819,0,0,1,21.069,3.227ZM18.552,1.915H5.107L5.866.68A1.391,1.391,0,0,1,7.046.018h9.567A1.4,1.4,0,0,1,17.8.68ZM19.74,5.89,17.773,22.6a1.389,1.389,0,0,1-1.379,1.227H7.264A1.388,1.388,0,0,1,5.888,22.6L3.921,5.89Z" transform="translate(-2.592 -0.018)"/>
      </g>
    </g>
    <g id="Mask_Group_103" data-name="Mask Group 103" transform="translate(1 -2)" clip-path="url(#clip-path-2)">
      <g id="svgexport-17_10_" data-name="svgexport-17 (10)" transform="translate(32.324 429)">
        <path id="Path_84120" data-name="Path 84120" d="M5.485,10.045a.664.664,0,0,1-.17-.022,1.256,1.256,0,0,1-.622-.545,1.349,1.349,0,0,0-.34-.37A1.366,1.366,0,0,0,3.854,9a1.23,1.23,0,0,1-.773-.264,1.238,1.238,0,0,1-.264-.773,1.37,1.37,0,0,0-.113-.5,1.355,1.355,0,0,0-.37-.34A1.255,1.255,0,0,1,1.79,6.5a1.219,1.219,0,0,1,.158-.789,1.415,1.415,0,0,0,.155-.5,1.415,1.415,0,0,0-.155-.5,1.218,1.218,0,0,1-.158-.789A1.255,1.255,0,0,1,2.334,3.3a1.355,1.355,0,0,0,.37-.34,1.371,1.371,0,0,0,.113-.5,1.231,1.231,0,0,1,.264-.773,1.238,1.238,0,0,1,.773-.264,1.366,1.366,0,0,0,.5-.113,1.35,1.35,0,0,0,.34-.37A1.255,1.255,0,0,1,5.315.392,1.218,1.218,0,0,1,6.1.55a1.415,1.415,0,0,0,.5.156,1.415,1.415,0,0,0,.5-.155A1.22,1.22,0,0,1,7.895.394a1.253,1.253,0,0,1,.622.546,1.354,1.354,0,0,0,.34.37,1.366,1.366,0,0,0,.5.113,1.232,1.232,0,0,1,.773.264,1.238,1.238,0,0,1,.264.773,1.372,1.372,0,0,0,.113.5,1.357,1.357,0,0,0,.37.339,1.256,1.256,0,0,1,.545.622,1.219,1.219,0,0,1-.158.789,1.413,1.413,0,0,0-.155.5,1.415,1.415,0,0,0,.155.5,1.218,1.218,0,0,1,.158.789,1.256,1.256,0,0,1-.545.622,1.352,1.352,0,0,0-.37.34,1.37,1.37,0,0,0-.113.5,1.231,1.231,0,0,1-.264.773A1.238,1.238,0,0,1,9.356,9a1.366,1.366,0,0,0-.5.113,1.35,1.35,0,0,0-.34.37,1.255,1.255,0,0,1-.622.545,1.225,1.225,0,0,1-.789-.157,1.415,1.415,0,0,0-.5-.157,1.415,1.415,0,0,0-.5.155,1.61,1.61,0,0,1-.619.179Zm1.12-.686a1.651,1.651,0,0,1,.642.184,1,1,0,0,0,.557.141c.158-.042.29-.222.429-.413A1.6,1.6,0,0,1,8.681,8.8a1.624,1.624,0,0,1,.636-.158,1,1,0,0,0,.563-.162,1,1,0,0,0,.162-.563,1.619,1.619,0,0,1,.158-.636,1.6,1.6,0,0,1,.466-.447c.19-.139.37-.271.413-.429a.985.985,0,0,0-.141-.557,1.651,1.651,0,0,1-.184-.642,1.647,1.647,0,0,1,.184-.642.988.988,0,0,0,.14-.557c-.042-.158-.222-.29-.413-.429a1.6,1.6,0,0,1-.466-.447,1.619,1.619,0,0,1-.158-.636.993.993,0,0,0-.163-.563,1,1,0,0,0-.563-.162,1.623,1.623,0,0,1-.636-.158,1.6,1.6,0,0,1-.446-.466C8.094.955,7.962.776,7.8.733a.984.984,0,0,0-.557.141,1.651,1.651,0,0,1-.642.184A1.651,1.651,0,0,1,5.963.873a.988.988,0,0,0-.557-.14c-.158.042-.29.222-.429.413a1.6,1.6,0,0,1-.447.467,1.623,1.623,0,0,1-.636.158.993.993,0,0,0-.563.162,1,1,0,0,0-.162.563,1.621,1.621,0,0,1-.158.636,1.6,1.6,0,0,1-.466.447c-.191.139-.371.271-.413.429a.985.985,0,0,0,.141.557,1.651,1.651,0,0,1,.184.642,1.648,1.648,0,0,1-.184.642.988.988,0,0,0-.14.557c.042.158.222.29.413.429a1.6,1.6,0,0,1,.466.447,1.62,1.62,0,0,1,.158.636.993.993,0,0,0,.163.563,1,1,0,0,0,.563.162,1.626,1.626,0,0,1,.636.158,1.6,1.6,0,0,1,.447.467c.14.19.271.37.429.413a.981.981,0,0,0,.557-.141,1.651,1.651,0,0,1,.641-.184Z" transform="translate(-1.768 -0.37)" fill="#fff"/>
        <path id="Path_84121" data-name="Path 84121" d="M6.685,8.667a3.38,3.38,0,1,1,3.38-3.38,3.38,3.38,0,0,1-3.38,3.38Zm0-6.406A3.028,3.028,0,1,0,9.713,5.289,3.028,3.028,0,0,0,6.685,2.261Z" transform="translate(-1.848 -0.45)" fill="#fff"/>
        <path id="Path_84122" data-name="Path 84122" d="M7.663,6.917a.176.176,0,0,1-.082-.02l-.935-.491L5.712,6.9a.176.176,0,0,1-.255-.186l.178-1.041-.757-.737a.176.176,0,0,1,.1-.3L6.021,4.48l.468-.946a.183.183,0,0,1,.315,0l.468.947,1.045.152a.176.176,0,0,1,.1.3l-.757.737.18,1.04a.176.176,0,0,1-.174.206ZM6.647,6.03a.176.176,0,0,1,.082.02l.7.368L7.3,5.638a.176.176,0,0,1,.051-.156l.567-.553L7.13,4.816A.176.176,0,0,1,7,4.72l-.35-.71-.35.71a.176.176,0,0,1-.133.1L5.38,4.93l.567.553A.176.176,0,0,1,6,5.638l-.134.78.7-.368A.176.176,0,0,1,6.647,6.03Zm1.364,6.823H7.995a.176.176,0,0,1-.149-.114L6.752,9.808a.176.176,0,1,1,.335-.11l.961,2.574.7-1.174a.176.176,0,0,1,.206-.077l1.3.427L9.352,9.024a.176.176,0,1,1,.33-.123l1.034,2.767a.176.176,0,0,1-.22.229L8.98,11.4l-.818,1.368a.176.176,0,0,1-.151.086Zm-2.728,0a.176.176,0,0,1-.151-.086L4.313,11.4,2.8,11.9a.176.176,0,0,1-.22-.229L3.612,8.9a.176.176,0,1,1,.33.123l-.906,2.424,1.3-.427a.176.176,0,0,1,.206.077l.7,1.174.966-2.588a.176.176,0,1,1,.33.123L5.447,12.739a.176.176,0,0,1-.149.114H5.282Z" transform="translate(-1.81 -0.53)" fill="#fff"/>
      </g>
    </g>
  </g>
</svg>
