<svg xmlns="http://www.w3.org/2000/svg" width="260.77" height="52.39" viewBox="0 0 260.77 52.39">
  <g id="Dark_Solution_Design" data-name="Dark Solution Design" transform="translate(0.016 -7.937)">
    <path id="Path_85968" data-name="Path 85968" d="M90.122,117.365a.064.064,0,0,0-.022-.025.185.185,0,0,1,.034.019s-.009.006-.012.009" transform="translate(-62.203 -75.517)" fill="#fff"/>
    <path id="Path_85969" data-name="Path 85969" d="M547.422,75.794c-.053-.341-.446-.338-.66-.239-.149.068-.3.139-.446.208a17.554,17.554,0,0,1-4.826,1.648c-3.4.26-1.109-1.877-1.7-3.782-.784-2.527-4.426-.53-6.786,1a3.985,3.985,0,0,0,.666-3.392c-.616-1.642-2.326-1.8-3.76-1.4a17.684,17.684,0,0,0-5.736,3.24c-1.524,1.2-6.173,3.547-5.935,1.155.093-.948.777-2.735.282-3.643-1.224-2.23-5.021-1.88-5.894.335-.093-.059-.186-.118-.291-.173-1.5-.827-2.961-.35-4.315.52-2.487,1.6-4.061,4.281-6.783,5.581a6.575,6.575,0,0,1-4.225.644c-3.069-.911-2.329-1.685-1.313-3.28.585-.92,1.7-2.007,1.843-3.138.5-3.949-5.51-.136-6.721.839-2.357,1.9-4.553,4.318-7.341,5.6-1.354.626-4.5,1.369-4.333-1.013.1-1.446,1.487-2.955,2.373-4,1.657-1.964,3.723-4.188,6.244-4.968.378-.006.793-.015,1.258-.028,4.15-.1,3.227.527,7.254-.6a.372.372,0,0,0,.263-.579c-1.134-2.044-1.44-2.667-6.647-2.314l-.273.019c-.133-.282.833-.83,1.617-1.614.359-.359,7.942-7.257,4.318-7.369-2.01-.062-4.5,2.558-5.783,3.828a54.348,54.348,0,0,1-4.448,4.491A7.52,7.52,0,0,1,482.8,64.68c-.235.022-.486.043-.756.065l-.115.136-.2.037a6.032,6.032,0,0,0-2.035.335c-.765.406-1.877,2.518-.542,2.846a2.455,2.455,0,0,0,.768.025c.477-.034.951-.068,1.425-.105.328-.025.768-.167.632.31-.059.211-.344.406-.5.536-.384.31-.83.527-1.22.821-.87.66-1.629,1.406-2.428,2.143-.849.833-1.654,1.71-2.469,2.577-.9.957-1.821,2.162-3.113,2.577-.062.04-.118.087-.183.121-.273.142-.527.269-.771.387-.855.26-4.516,1.1-5.334.254-.046-1.022,1.428-2.128,2.348-2.673.254-.328.641-.533.9-.867a2.677,2.677,0,0,0,.681-1.766c-.022-1.53-1.019-2.36-2.342-1.79-.768.53-4.185,3.1-5.024,3.491-2,.942-4.677,2.623-6.892,2.859-2.066.217-.551-1.2.415-1.762A22.421,22.421,0,0,0,459,72.9c2.382-2.057,1.775-5.5-1.013-3.2-2.453,2.026-6.309,3.3-7.852,6.052-1.016,1.818-3.017,1.728-4.761,2.1-.942.2-3.856.836-3.893-1.2-.028-1.456,2.06-2.425,3.1-2.946,5.064-2.54,11.132-5.334,13.223-11.151.576-1.6,0-2.639-1.747-3-2.435-.511-4.4,1.546-6.062,3.008-3.59,3.178-6.232,7.3-9.871,10.454-.852.737-2.029,1.363-2.949,2.044-2.363,1.747-3.624-.827-3.869-2.67-.26-1.954-.338-3.336-2.339-3.42-1.189-.05-2.212.192-2.376,1.493a3.747,3.747,0,0,0,.056,1.279c-2.373-5.058-14.62,5.681-7.623,8.753,2.8,1.23,5.393-.087,7.846-1.409a8.961,8.961,0,0,1,6.2-1.289c1.57.294,2.791,2.078,4.29,2.692a8.428,8.428,0,0,0,6.4-.3c3.807-2.357,3.475.081,6.139.4,3.543.427,6.7-1.1,9.763-2.713-1.914,5.235,9.955,2.013,12.145,1.363.189-.056.595-.365.756-.328.514.294.79,1.412,1.4,1.762a6.749,6.749,0,0,0,4.253.477c3.131-.446,7.948-3.429,10.621-5.619a.208.208,0,0,1,.341.158c.183,3.389,2.28,5.7,5.507,5.4a18.9,18.9,0,0,0,6.055-1.57c.291-.133.821-.567,1.127-.589.833-.062-.177-.1.378.338.976.774,1.419,1.462,2.772,1.657,3.478.5,5.888-3.172,9-3.639,2.524-.381,4.178,1.831,6.687.539a20.55,20.55,0,0,0,2.314-1.487c.629-.437,3.658-2.546,3.55-1.462-.149,1.45-3.376,2.431-3.779,4.147-.387,1.639,1.295,2.679,2.778,2.692,2.277.025,3.615-2.218,5.659-3.426a4.32,4.32,0,0,1,.78-.517.5.5,0,0,1,.465-.2.492.492,0,0,1,.514.619,3.3,3.3,0,0,0,2.887,2.887c3.862.322,9.89-3.02,9.54-5.3m-99.358-7.539a.44.44,0,0,0,.087-.062c.084-.093.167-.183.251-.273.3-.325,3.556-3.494,3.745-2.363.1.619-1.611,1.722-2.007,2.029a23.253,23.253,0,0,1-4.036,2.729c.613-.722,1.3-1.381,1.964-2.06M427.9,76.494c-.421.372-2.27,1.577-2.908,1.248-2.3-1.183-.945-2.689-.273-2.936.737-.269,1.716-.214,2.428-.545.951-.443,1.824-.725,1.744-1.682.412,1.18.855,2.28-.988,3.915m84.729-1.174c-.328.415-4.042,2.627-4.206.694-.074-.87,3.224-1.868,4.383-2.781a1.673,1.673,0,0,1-.174,2.088" transform="translate(-289.155 -32.518)" fill="#fff"/>
    <path id="Path_85970" data-name="Path 85970" d="M677.545,86.008a2.1,2.1,0,1,0-2.205-2.094,2.151,2.151,0,0,0,2.205,2.094" transform="translate(-466.172 -50.999)" fill="#fff"/>
    <path id="Path_85971" data-name="Path 85971" d="M181.881,76.443a.157.157,0,0,0-.053-.121,1.4,1.4,0,0,0-1.6-.886,6,6,0,0,0-2.137.9,11.653,11.653,0,0,1-4.256,1.183,8.777,8.777,0,0,1-3.231-.1c-1.121-.369-2.394-1.635-1.877-2.63.536-1.035,3.274-1.722,4.333-1.927a4.421,4.421,0,0,0,2.93-1.434c2.072-2.6-1.419-3.921-3.262-3.125-3.311,1.434-7.338,4.72-10.689,6.477,2.524-3.918,11.343-11.389,14.105-15.121.762-1.028,2.273-4-.09-4.141-2.131-.127-8.332,7.192-9.512,8.533-3.519,4-7.285,8.038-11.928,10.729a15.941,15.941,0,0,1-5.876,2.335c-3.258.3.657-3.271,1.731-4.058,1.508-1.106-.019-2.462-2.023-3.265-2.193-1.338-4.943-2.4-7.146-.514a13.925,13.925,0,0,0-2.726,4.023c-.691,1.273-1.146,2.961-2.552,3.643-.681.331-4.277,1.279-4.426.118-.028-.217,2.174-1.787,2.255-2.184.217-1.062-.53-2.4-1.106-3.28a5.025,5.025,0,0,0-2.05-1.821,8.006,8.006,0,0,0-7.294.576,16.685,16.685,0,0,0-4.881,4.064c-.214.273-.418.527-.638.762-.043.167-.1.335-.149.5a10.461,10.461,0,0,1-.248,1.36c.006.084.015.167.019.251v.1c.077.424.139.852.177,1.285l.065-.028v.155c.849,1.945,2.586,2.363,4.7,2.02,1.3-.211,2.45-.92,3.7-1.192,2.608-.567,3.8,1.192,6.124,1.388,2.961.245,5.8-1.567,7.929-3.416.722-.626,2.964-4.59,3.661-5.247.808-.762,2.89.112,3.237.124-.177.9-5.411,4.627-4.154,7.232.852,1.766,3.42,1.481,4.937,1.3,3.166-.381,5.823-2.747,8.543-4.4-.963,1.626-2.456,4.507.242,4.736,2.376.2,4.922-2.286,6.817-3.828,1.279,5.907,16.494,4.324,18.337-.87a.194.194,0,0,0,.059-.211m-53.046-2.5c-.517,1.292-2.413,2.14-3.587,2.633-.9.381-3.754,1.2-2.627-.8.7-1.236,2.4-2.016,3.689-2.441.8-.266,2.812-.808,2.527.6" transform="translate(-81.11 -32.848)" fill="#fff"/>
    <path id="Path_85972" data-name="Path 85972" d="M18.964,45.195c6.35.136,11.058-2.893,14.963-7.57a33.139,33.139,0,0,0,7.434-15.707,11.567,11.567,0,0,0-.846-6.715c-.932-2.146-2.921-2.9-5.021-3.138-5.417-.616-10.255.638-14.112,4.751a7.654,7.654,0,0,0-2.3,5.792,6.521,6.521,0,0,1-.053,1.434A2.289,2.289,0,0,1,15.7,25.827a1.717,1.717,0,0,1-1.041-1.992,14.328,14.328,0,0,1,3.8-8.762c4.293-4.47,9.413-7.05,15.775-6.6A12.312,12.312,0,0,1,45.48,19.548c.458,4.708-.948,8.986-3,13.08-3.59,7.164-8.862,12.575-16.627,15.18A26.668,26.668,0,0,1,11.23,48.5a12.024,12.024,0,0,0-5.69.136,26.351,26.351,0,0,1-3.147.561A1.89,1.89,0,0,1,.228,48.032,2.221,2.221,0,0,1,.742,45.3,6.659,6.659,0,0,1,3.08,43.888c4.247-1.1,6.966-4.014,9.438-7.4C17.2,30.08,21.993,23.764,26.775,17.436a21.133,21.133,0,0,1,2.89-3.193,7.905,7.905,0,0,1,2.692-1.431,2.27,2.27,0,0,1,2.54,1.5,1.6,1.6,0,0,1-.8,2.165c-4.089,2.1-6.78,5.609-9.422,9.184q-5.459,7.387-10.931,14.771c-.152.208-.3.418-.44.638-1.127,1.809-.427,3.385,1.7,3.711,1.31.2,2.639.279,3.958.412" transform="translate(0 -0.333)" fill="#fff"/>
    <path id="Path_85973" data-name="Path 85973" d="M360.687,34.036c-.254-3.382-.57-6.762-.746-10.147a19.088,19.088,0,0,1,1.146-8.812c1.608-3.655,4.1-6.387,8.282-7.047,4.048-.641,8.059,2.075,8.608,5.832a6.014,6.014,0,0,1-2.02,5.473,2.587,2.587,0,0,1-3.587-.273.936.936,0,0,1,.071-1.453c.446-.44.935-.836,1.363-1.295a2.644,2.644,0,0,0-.644-4.432c-2.035-1.217-4.751-.616-6.687,1.462-2.27,2.435-2.577,5.4-2.187,8.484.35,2.775.966,5.52,1.282,8.3.619,5.439-.127,10.519-4.219,14.644-5.222,5.269-13.557,5.538-18.516.632-6.1-6.031-3.952-15.112,1.372-19.346a24.315,24.315,0,0,1,3.924-2.456,2.463,2.463,0,0,1,3.432.743,1.944,1.944,0,0,1-1.053,3.345,11.171,11.171,0,0,1-1.951.362,4.83,4.83,0,0,0-3.649,2.23c-2.221,3.45-2.732,7.087-.805,10.8,2.729,5.256,10.206,5.808,13.994,1.093a11.43,11.43,0,0,0,2.592-8.137" transform="translate(-234.105 0)" fill="#fff"/>
    <path id="Path_85974" data-name="Path 85974" d="M833.185,134.07a1.6,1.6,0,1,1,1.6-1.6,1.6,1.6,0,0,1-1.6,1.6m0-2.958a1.363,1.363,0,1,0,1.363,1.363,1.363,1.363,0,0,0-1.363-1.363" transform="translate(-574.026 -84.863)" fill="#fff"/>
    <path id="Path_85975" data-name="Path 85975" d="M835.28,134.935l-.39-.554h-.217v.554h-.443V133.16h.824a.621.621,0,0,1,.675.61.582.582,0,0,1-.378.554l.431.61Zm-.607-.96h.341c.152,0,.26-.084.26-.208s-.108-.208-.26-.208h-.341Z" transform="translate(-575.848 -86.437)" fill="#fff"/>
    <path id="Path_85976" data-name="Path 85976" d="M184.63,165.111l.585-.694a2.331,2.331,0,0,0,1.552.619c.508,0,.771-.232.771-.53,0-.338-.276-.44-1-.6-1-.226-1.7-.508-1.7-1.422s.715-1.471,1.744-1.471a2.737,2.737,0,0,1,1.849.654l-.53.728a2.175,2.175,0,0,0-1.347-.52c-.455,0-.694.226-.694.508,0,.344.282.452,1.01.619,1.016.226,1.691.53,1.691,1.4s-.681,1.5-1.834,1.5a3.027,3.027,0,0,1-2.094-.784" transform="translate(-127.454 -105.661)" fill="#fff"/>
    <path id="Path_85977" data-name="Path 85977" d="M186.441,165.787a3.1,3.1,0,0,1-2.156-.808l-.065-.059.7-.83.071.059a2.231,2.231,0,0,0,1.493.595c.418,0,.678-.167.678-.437,0-.248-.173-.344-.926-.514-.935-.214-1.775-.489-1.775-1.512a1.64,1.64,0,0,1,1.837-1.561,2.806,2.806,0,0,1,1.9.675l.065.056-.635.873-.074-.059a2.1,2.1,0,0,0-1.289-.5c-.356,0-.6.17-.6.415s.177.356.939.53c1.087.242,1.762.576,1.762,1.49,0,.979-.737,1.589-1.927,1.589m-1.967-.883a2.938,2.938,0,0,0,1.967.7c1.075,0,1.741-.539,1.741-1.406,0-.8-.592-1.084-1.617-1.313-.669-.152-1.081-.266-1.081-.706,0-.353.322-.6.784-.6a2.213,2.213,0,0,1,1.329.483l.424-.582a2.641,2.641,0,0,0-1.722-.576c-.988,0-1.654.554-1.654,1.378s.573,1.09,1.632,1.332c.681.158,1.069.266,1.069.694,0,.285-.226.619-.861.619a2.377,2.377,0,0,1-1.542-.579l-.468.554Z" transform="translate(-127.171 -105.46)" fill="#fff"/>
    <path id="Path_85978" data-name="Path 85978" d="M204,161.28h2.122a1.6,1.6,0,1,1,0,3.187H205.01V166H204Zm2.013,2.258c.5,0,.846-.26.846-.666s-.344-.666-.846-.666h-1v1.332h1Z" transform="translate(-140.824 -105.847)" fill="#fff"/>
    <path id="Path_85979" data-name="Path 85979" d="M204.9,165.883H203.71v-4.9h2.215a1.694,1.694,0,1,1,0,3.37H204.9v1.533Zm-1.01-.183h.827v-1.533h1.2a1.512,1.512,0,1,0,0-3h-2.032V165.7Zm1.92-2.277H204.72v-1.515h1.093c.561,0,.935.3.935.759s-.375.759-.935.759m-.911-.183h.911c.458,0,.753-.226.753-.576s-.3-.573-.753-.573H204.9Z" transform="translate(-140.624 -105.64)" fill="#fff"/>
    <path id="Path_85980" data-name="Path 85980" d="M224.3,162.194v.942h2.37v.914H224.3v1.038h2.617V166H223.28v-4.72h3.633v.914Z" transform="translate(-154.132 -105.847)" fill="#fff"/>
    <path id="Path_85981" data-name="Path 85981" d="M226.8,165.883H222.98v-4.9H226.8v1.1h-2.617v.756h2.369v1.1h-2.369v.855H226.8v1.1Zm-3.633-.183h3.45v-.731H224v-1.22h2.37v-.731H224v-1.124h2.617v-.731h-3.45V165.7Z" transform="translate(-153.925 -105.64)" fill="#fff"/>
    <path id="Path_85982" data-name="Path 85982" d="M241.69,163.458a2.514,2.514,0,0,1,4.343-1.648l-.734.66a1.472,1.472,0,0,0-1.1-.53,1.522,1.522,0,0,0,0,3.042,1.472,1.472,0,0,0,1.1-.53l.734.66a2.56,2.56,0,0,1-1.834.79,2.514,2.514,0,0,1-2.509-2.444" transform="translate(-166.84 -105.668)" fill="#fff"/>
    <path id="Path_85983" data-name="Path 85983" d="M244,165.787a2.534,2.534,0,1,1,0-5.067,2.629,2.629,0,0,1,1.9.818l.065.068-.873.784-.062-.071a1.384,1.384,0,0,0-1.028-.5,1.432,1.432,0,0,0,0,2.862,1.374,1.374,0,0,0,1.028-.5l.062-.071.873.784-.065.068a2.645,2.645,0,0,1-1.9.818m0-4.885a2.352,2.352,0,1,0,0,4.7,2.459,2.459,0,0,0,1.7-.694l-.595-.536a1.553,1.553,0,0,1-1.106.492,1.615,1.615,0,0,1,0-3.227,1.54,1.54,0,0,1,1.106.492l.6-.536a2.436,2.436,0,0,0-1.7-.694" transform="translate(-166.64 -105.46)" fill="#fff"/>
    <rect id="Rectangle_149341" data-name="Rectangle 149341" width="1.016" height="4.72" transform="translate(81.261 55.433)" fill="#fff"/>
    <path id="Path_85984" data-name="Path 85984" d="M263.292,165.883h-1.2v-4.9h1.2Zm-1.016-.183h.833v-4.538h-.833Z" transform="translate(-180.922 -105.64)" fill="#fff"/>
    <path id="Path_85985" data-name="Path 85985" d="M275.887,165.257h-2.1l-.3.743H272.35l1.923-4.72h1.134l1.923,4.72h-1.14Zm-.35-.858-.7-1.725-.7,1.725h1.4Z" transform="translate(-188.004 -105.847)" fill="#fff"/>
    <path id="Path_85986" data-name="Path 85986" d="M277.156,165.883h-1.338l-.3-.743h-1.979l-.3.743H271.9l2-4.9h1.258l2,4.9Zm-1.214-.183h.942l-1.849-4.538h-1.01l-1.849,4.538h.935l.3-.743h2.227l.3.743Zm-.579-1.419H273.69l.836-2.06Zm-1.4-.183h1.131l-.564-1.388-.564,1.388Z" transform="translate(-187.693 -105.64)" fill="#fff"/>
    <path id="Path_85987" data-name="Path 85987" d="M298.477,165.087V166H295.11v-4.72h1.019v3.807Z" transform="translate(-203.714 -105.847)" fill="#fff"/>
    <path id="Path_85988" data-name="Path 85988" d="M298.37,165.883h-3.55v-4.9h1.2v3.807h2.348v1.1ZM295,165.7h3.181v-.731h-2.348v-3.807H295Z" transform="translate(-203.514 -105.64)" fill="#fff"/>
    <path id="Path_85989" data-name="Path 85989" d="M314.131,162.194H312.66v-.914h3.958v.914h-1.471V166h-1.016Z" transform="translate(-215.828 -105.847)" fill="#fff"/>
    <path id="Path_85990" data-name="Path 85990" d="M315.04,165.89h-1.2v-3.8H312.37v-1.1h4.141v1.1H315.04Zm-1.016-.183h.833V161.9h1.471v-.731h-3.773v.731h1.471v3.807Z" transform="translate(-215.628 -105.647)" fill="#fff"/>
    <path id="Path_85991" data-name="Path 85991" d="M333.966,164.3l-1.846-3.017h1.18l1.174,2.069,1.223-2.069h1.134l-1.84,3.017V166h-1.025Z" transform="translate(-229.261 -105.847)" fill="#fff"/>
    <path id="Path_85992" data-name="Path 85992" d="M334.715,165.883h-1.2v-1.769l-1.92-3.135h1.4l1.124,1.976,1.168-1.976h1.35l-1.914,3.135Zm-1.022-.183h.839v-1.639l1.769-2.9h-.917l-1.276,2.159-1.227-2.159h-.963l1.775,2.9Z" transform="translate(-228.895 -105.64)" fill="#fff"/>
    <path id="Path_85993" data-name="Path 85993" d="M364.63,163.458a2.514,2.514,0,0,1,4.342-1.648l-.734.66a1.472,1.472,0,0,0-1.1-.53,1.522,1.522,0,0,0,0,3.042,1.472,1.472,0,0,0,1.1-.53l.734.66a2.56,2.56,0,0,1-1.834.79,2.514,2.514,0,0,1-2.509-2.444" transform="translate(-251.701 -105.668)" fill="#fff"/>
    <path id="Path_85994" data-name="Path 85994" d="M366.929,165.787a2.534,2.534,0,1,1,0-5.067,2.629,2.629,0,0,1,1.9.818l.065.068-.873.784-.062-.071a1.384,1.384,0,0,0-1.028-.5,1.432,1.432,0,0,0,0,2.862,1.374,1.374,0,0,0,1.028-.5l.062-.071.873.784-.065.068a2.645,2.645,0,0,1-1.9.818m0-4.885a2.352,2.352,0,1,0,0,4.7,2.459,2.459,0,0,0,1.7-.694l-.595-.536a1.553,1.553,0,0,1-1.106.492,1.615,1.615,0,0,1,0-3.227,1.54,1.54,0,0,1,1.106.492l.6-.536a2.436,2.436,0,0,0-1.7-.694" transform="translate(-251.494 -105.46)" fill="#fff"/>
    <path id="Path_85995" data-name="Path 85995" d="M385.01,163.458a2.51,2.51,0,1,1,2.509,2.444,2.509,2.509,0,0,1-2.509-2.444m3.977,0a1.468,1.468,0,1,0-1.471,1.524,1.517,1.517,0,0,0,1.471-1.524" transform="translate(-265.769 -105.668)" fill="#fff"/>
    <path id="Path_85996" data-name="Path 85996" d="M387.319,165.787a2.534,2.534,0,1,1,2.6-2.537,2.6,2.6,0,0,1-2.6,2.537m0-4.885a2.352,2.352,0,1,0,2.416,2.348,2.414,2.414,0,0,0-2.416-2.348m0,3.965a1.615,1.615,0,1,1,1.561-1.617,1.608,1.608,0,0,1-1.561,1.617m0-3.042a1.432,1.432,0,1,0,1.378,1.428,1.42,1.42,0,0,0-1.378-1.428" transform="translate(-265.568 -105.46)" fill="#fff"/>
    <path id="Path_85997" data-name="Path 85997" d="M409.816,162.194v1.025h2.369v.914h-2.369V166H408.8v-4.72h3.633v.914Z" transform="translate(-282.19 -105.847)" fill="#fff"/>
    <path id="Path_85998" data-name="Path 85998" d="M409.709,165.883h-1.2v-4.9h3.816v1.1h-2.617v.839h2.37v1.1h-2.37v1.868Zm-1.016-.183h.833v-1.868H411.9V163.1h-2.369v-1.208h2.617v-.731h-3.45Z" transform="translate(-281.99 -105.64)" fill="#fff"/>
    <path id="Path_85999" data-name="Path 85999" d="M429.146,162.194v1.025h2.373v.914h-2.373V166H428.13v-4.72h3.633v.914Z" transform="translate(-295.533 -105.847)" fill="#fff"/>
    <path id="Path_86000" data-name="Path 86000" d="M429.039,165.883h-1.2v-4.9h3.816v1.1h-2.617v.839h2.37v1.1h-2.37v1.868Zm-1.016-.183h.833v-1.868h2.37V163.1h-2.37v-1.208h2.617v-.731h-3.451Z" transform="translate(-295.332 -105.64)" fill="#fff"/>
    <path id="Path_86001" data-name="Path 86001" d="M448.479,162.194v.942h2.369v.914h-2.369v1.038H451.1V166H447.46v-4.72H451.1v.914Z" transform="translate(-308.875 -105.847)" fill="#fff"/>
    <path id="Path_86002" data-name="Path 86002" d="M450.979,165.883H447.16v-4.9h3.816v1.1h-2.617v.759h2.369v1.1h-2.369v.855h2.617v1.1Zm-3.633-.183H450.8v-.731h-2.617v-1.22h2.37v-.731h-2.37v-1.124H450.8v-.731h-3.451V165.7Z" transform="translate(-308.668 -105.64)" fill="#fff"/>
    <path id="Path_86003" data-name="Path 86003" d="M467.816,162.194v.942h2.37v.914h-2.37v1.038h2.617V166H466.8v-4.72h3.633v.914Z" transform="translate(-322.225 -105.847)" fill="#fff"/>
    <path id="Path_86004" data-name="Path 86004" d="M470.319,165.883H466.5v-4.9h3.819v1.1H467.7v.756h2.37v1.1H467.7v.855h2.617v1.1Zm-3.633-.183h3.45v-.731h-2.617v-1.22h2.369v-.731h-2.369v-1.124h2.617v-.731h-3.45V165.7Z" transform="translate(-322.018 -105.64)" fill="#fff"/>
    <path id="Path_86005" data-name="Path 86005" d="M502.207,166l-1.078-1.533h-.75V166h-1.01v-4.72h2.122a1.637,1.637,0,0,1,1.781,1.592,1.538,1.538,0,0,1-1.072,1.477L503.363,166H502.21Zm-1.827-2.459h1c.5,0,.846-.26.846-.666s-.344-.666-.846-.666h-1Z" transform="translate(-344.707 -105.847)" fill="#fff"/>
    <path id="Path_86006" data-name="Path 86006" d="M503.339,165.883h-1.378l-1.078-1.533h-.61v1.533H499.08v-4.9h2.215a1.727,1.727,0,0,1,1.871,1.685,1.621,1.621,0,0,1-1.022,1.521Zm-1.282-.183h.929l-1.127-1.6.115-.04a1.454,1.454,0,0,0,1.01-1.391,1.55,1.55,0,0,0-1.688-1.5h-2.032V165.7h.827v-1.533h.889l1.078,1.533Zm-.87-2.277h-1.093v-1.515h1.093c.561,0,.935.3.935.759s-.375.759-.935.759m-.911-.183h.911c.458,0,.753-.226.753-.576s-.294-.573-.753-.573h-.911Z" transform="translate(-344.507 -105.64)" fill="#fff"/>
    <path id="Path_86007" data-name="Path 86007" d="M518.25,163.458a2.51,2.51,0,1,1,2.509,2.444,2.508,2.508,0,0,1-2.509-2.444m3.977,0a1.468,1.468,0,1,0-1.471,1.524,1.517,1.517,0,0,0,1.471-1.524" transform="translate(-357.739 -105.668)" fill="#fff"/>
    <path id="Path_86008" data-name="Path 86008" d="M520.549,165.787a2.534,2.534,0,1,1,2.6-2.537,2.6,2.6,0,0,1-2.6,2.537m0-4.885a2.352,2.352,0,1,0,2.416,2.348,2.414,2.414,0,0,0-2.416-2.348m0,3.965a1.615,1.615,0,1,1,1.561-1.617,1.608,1.608,0,0,1-1.561,1.617m0-3.042a1.432,1.432,0,1,0,1.378,1.428,1.42,1.42,0,0,0-1.378-1.428" transform="translate(-357.532 -105.46)" fill="#fff"/>
    <path id="Path_86009" data-name="Path 86009" d="M543.607,165.257h-2.1l-.3.743H540.07l1.923-4.72h1.134l1.923,4.72h-1.14l-.3-.743Zm-.35-.858-.7-1.725-.7,1.725Z" transform="translate(-372.801 -105.847)" fill="#fff"/>
    <path id="Path_86010" data-name="Path 86010" d="M544.876,165.883h-1.338l-.3-.743h-1.979l-.3.743H539.62l2-4.9h1.258l2,4.9Zm-1.214-.183h.942l-1.849-4.538h-1.01L539.9,165.7h.935l.3-.743h2.227l.3.743Zm-.579-1.419H541.41l.836-2.06Zm-1.4-.183h1.127l-.564-1.388Z" transform="translate(-372.49 -105.64)" fill="#fff"/>
    <path id="Path_86011" data-name="Path 86011" d="M561.39,165.111l.585-.694a2.331,2.331,0,0,0,1.552.619c.508,0,.771-.232.771-.53,0-.338-.276-.44-1-.6-1-.226-1.7-.508-1.7-1.422s.716-1.471,1.744-1.471a2.731,2.731,0,0,1,1.849.654l-.53.728a2.175,2.175,0,0,0-1.347-.52c-.455,0-.694.226-.694.508,0,.344.282.452,1.01.619,1.019.226,1.691.53,1.691,1.4s-.681,1.5-1.834,1.5a3.027,3.027,0,0,1-2.094-.784" transform="translate(-387.517 -105.661)" fill="#fff"/>
    <path id="Path_86012" data-name="Path 86012" d="M563.194,165.787a3.115,3.115,0,0,1-2.159-.808l-.065-.059.7-.83.071.059a2.216,2.216,0,0,0,1.493.595c.418,0,.678-.167.678-.437,0-.248-.173-.344-.923-.514-.935-.214-1.775-.489-1.775-1.512a1.64,1.64,0,0,1,1.837-1.561,2.814,2.814,0,0,1,1.908.675l.065.056-.635.873-.074-.059a2.1,2.1,0,0,0-1.288-.5c-.356,0-.6.17-.6.415s.177.356.938.53c1.087.242,1.762.576,1.762,1.49,0,.979-.737,1.589-1.927,1.589m-1.967-.883a2.939,2.939,0,0,0,1.967.7c1.075,0,1.741-.539,1.741-1.406,0-.8-.595-1.084-1.617-1.313-.669-.152-1.081-.266-1.081-.706,0-.353.322-.6.784-.6a2.213,2.213,0,0,1,1.329.483l.421-.582a2.635,2.635,0,0,0-1.722-.576c-.988,0-1.654.554-1.654,1.378s.573,1.09,1.632,1.332c.681.158,1.069.266,1.069.694,0,.288-.226.619-.861.619a2.377,2.377,0,0,1-1.542-.579l-.468.554Z" transform="translate(-387.227 -105.46)" fill="#fff"/>
    <path id="Path_86013" data-name="Path 86013" d="M581.531,162.194H580.06v-.914h3.955v.914h-1.468V166h-1.016Z" transform="translate(-400.404 -105.847)" fill="#fff"/>
    <path id="Path_86014" data-name="Path 86014" d="M582.43,165.89h-1.2v-3.8H579.76v-1.1H583.9v1.1H582.43Zm-1.016-.183h.833V161.9h1.468v-.731h-3.773v.731h1.468v3.807Z" transform="translate(-400.197 -105.647)" fill="#fff"/>
    <path id="Path_86015" data-name="Path 86015" d="M600.486,162.194v.942h2.37v.914h-2.37v1.038H603.1V166H599.47v-4.72H603.1v.914Z" transform="translate(-413.802 -105.847)" fill="#fff"/>
    <path id="Path_86016" data-name="Path 86016" d="M602.989,165.883H599.17v-4.9h3.819v1.1h-2.617v.759h2.37v1.1h-2.37v.855h2.617Zm-3.633-.183h3.451v-.731h-2.617v-1.22h2.37v-.731h-2.37v-1.124h2.617v-.731h-3.451V165.7Z" transform="translate(-413.595 -105.64)" fill="#fff"/>
    <path id="Path_86017" data-name="Path 86017" d="M620.957,166l-1.078-1.533h-.75V166h-1.01v-4.72h2.122a1.637,1.637,0,0,1,1.781,1.592,1.538,1.538,0,0,1-1.072,1.477L622.113,166H620.96Zm-1.827-2.459h1c.5,0,.846-.26.846-.666s-.344-.666-.846-.666h-1Z" transform="translate(-426.675 -105.847)" fill="#fff"/>
    <path id="Path_86018" data-name="Path 86018" d="M622.079,165.883H620.7l-1.078-1.533h-.61v1.533H617.82v-4.9h2.215a1.727,1.727,0,0,1,1.871,1.685,1.621,1.621,0,0,1-1.022,1.521ZM620.8,165.7h.929l-1.127-1.6.115-.04a1.454,1.454,0,0,0,1.01-1.391,1.55,1.55,0,0,0-1.688-1.5H618V165.7h.827v-1.533h.889L620.8,165.7Zm-.87-2.277h-1.093v-1.515h1.093c.561,0,.935.3.935.759s-.375.759-.935.759m-.911-.183h.911c.458,0,.753-.226.753-.576s-.294-.573-.753-.573h-.911Z" transform="translate(-426.468 -105.64)" fill="#fff"/>
    <path id="Path_86019" data-name="Path 86019" d="M636.59,165.111l.585-.694a2.331,2.331,0,0,0,1.552.619c.508,0,.771-.232.771-.53,0-.338-.276-.44-1-.6-1-.226-1.7-.508-1.7-1.422s.715-1.471,1.744-1.471a2.731,2.731,0,0,1,1.849.654l-.53.728a2.175,2.175,0,0,0-1.347-.52c-.455,0-.694.226-.694.508,0,.344.282.452,1.01.619,1.019.226,1.691.53,1.691,1.4s-.681,1.5-1.834,1.5a3.027,3.027,0,0,1-2.094-.784" transform="translate(-439.425 -105.661)" fill="#fff"/>
    <path id="Path_86020" data-name="Path 86020" d="M638.4,165.787a3.115,3.115,0,0,1-2.159-.808l-.065-.059.7-.83.071.059a2.216,2.216,0,0,0,1.493.595c.418,0,.678-.167.678-.437,0-.248-.17-.344-.923-.514-.935-.214-1.775-.489-1.775-1.512a1.64,1.64,0,0,1,1.837-1.561,2.814,2.814,0,0,1,1.908.675l.065.056-.635.873-.074-.059a2.1,2.1,0,0,0-1.289-.5c-.356,0-.6.17-.6.415s.177.356.938.53c1.087.242,1.762.576,1.762,1.49,0,.979-.737,1.589-1.927,1.589m-1.967-.883a2.938,2.938,0,0,0,1.967.7c1.075,0,1.741-.539,1.741-1.406,0-.8-.595-1.084-1.617-1.313-.669-.152-1.081-.266-1.081-.706,0-.353.322-.6.784-.6a2.213,2.213,0,0,1,1.329.483l.424-.582a2.643,2.643,0,0,0-1.725-.576c-.988,0-1.654.554-1.654,1.378s.573,1.09,1.632,1.332c.681.158,1.069.266,1.069.694,0,.288-.226.619-.861.619a2.377,2.377,0,0,1-1.542-.579l-.468.554Z" transform="translate(-439.142 -105.46)" fill="#fff"/>
  </g>
</svg>
