<svg xmlns="http://www.w3.org/2000/svg" xmlns:xlink="http://www.w3.org/1999/xlink" width="24" height="24" viewBox="0 0 24 24">
  <defs>
    <clipPath id="clip-path">
      <rect id="Rectangle_6013" data-name="Rectangle 6013" width="24" height="24" transform="translate(104 872)" stroke="#c7c7c7" stroke-width="1"/>
    </clipPath>
  </defs>
  <g id="Mask_Group_2" data-name="Mask Group 2" transform="translate(-104 -872)" clip-path="url(#clip-path)">
    <g id="svgexport-18_8_" data-name="svgexport-18 (8)" transform="translate(106.44 873.068)">
      <path id="Path_84175" data-name="Path 84175" d="M2.136,117,.068,121.139a.64.64,0,0,0,.573.927H3.751l1.866,2.488a.64.64,0,0,0,1.085-.1l1.949-3.9A9.461,9.461,0,0,1,2.136,117Zm16.917,4.135L16.985,117a9.461,9.461,0,0,1-6.515,3.555l1.949,3.9a.64.64,0,0,0,1.085.1l1.866-2.488H18.48a.64.64,0,0,0,.573-.927Zm-8.42-11.888L9.56,107.539l-1.072,1.713a.641.641,0,0,1-.388.282l-1.96.49,1.3,1.549a.64.64,0,0,1,.148.456l-.14,2.015,1.874-.755a.641.641,0,0,1,.479,0l1.874.755-.139-2.015a.641.641,0,0,1,.148-.456l1.3-1.549-1.96-.49a.641.641,0,0,1-.387-.282Zm0,0" transform="translate(0 -102.947)"/>
      <path id="Path_84176" data-name="Path 84176" d="M48.509,8.188a8.188,8.188,0,1,0-8.188,8.188A8.2,8.2,0,0,0,48.509,8.188ZM45.379,7.115,43.591,9.25l.192,2.779a.641.641,0,0,1-.878.638l-2.584-1.041-2.584,1.041a.64.64,0,0,1-.878-.638l.193-2.779L35.262,7.115A.641.641,0,0,1,35.6,6.082l2.7-.676,1.478-2.361a.641.641,0,0,1,1.086,0l1.478,2.361,2.7.676a.64.64,0,0,1,.336,1.033Zm0,0" transform="translate(-30.761)"/>
    </g>
  </g>
</svg>
