<svg xmlns="http://www.w3.org/2000/svg" xmlns:xlink="http://www.w3.org/1999/xlink" width="24" height="24" viewBox="0 0 24 24">
  <defs>
    <clipPath id="clip-path">
      <rect id="Rectangle_6013" data-name="Rectangle 6013" width="24" height="24" transform="translate(104 872)" fill="#282623" stroke="#c7c7c7" stroke-width="1"/>
    </clipPath>
  </defs>
  <g id="Mask_Group_2" data-name="Mask Group 2" transform="translate(-104 -872)" clip-path="url(#clip-path)">
    <g id="svgexport-18_7_" data-name="svgexport-18 (7)" transform="translate(105.943 873.071)">
      <path id="Path_84175" data-name="Path 84175" d="M19.546,18.188l-2.71-5.42a8.185,8.185,0,1,0-13.559,0l-2.71,5.42a.64.64,0,0,0,.573.927H4.249L6.115,21.6A.64.64,0,0,0,7.2,21.5l2.57-5.139c.1,0,.191.006.287.006s.192,0,.287-.006l2.57,5.139A.64.64,0,0,0,14,21.6l1.866-2.487h3.109a.64.64,0,0,0,.573-.927ZM6.518,20,5.081,18.09a.64.64,0,0,0-.512-.256H2.176L4.163,13.86a8.182,8.182,0,0,0,4.254,2.346ZM3.152,8.185a6.9,6.9,0,1,1,6.9,6.9,6.913,6.913,0,0,1-6.9-6.9Zm12.392,9.648a.641.641,0,0,0-.512.256L13.6,20l-1.9-3.8a8.182,8.182,0,0,0,4.254-2.346l1.987,3.974H15.544Zm0,0" fill="#282623"/>
      <path id="Path_84176" data-name="Path 84176" d="M110.887,70.769l1.788-2.135a.64.64,0,0,0-.335-1.032l-2.7-.676-1.478-2.361a.64.64,0,0,0-1.086,0L105.6,66.926l-2.7.676a.64.64,0,0,0-.335,1.032l1.788,2.135-.192,2.778a.64.64,0,0,0,.878.638l2.583-1.041,2.583,1.041a.64.64,0,0,0,.878-.638Zm-1.148-.625a.64.64,0,0,0-.148.455l.139,2.015-1.873-.755a.64.64,0,0,0-.479,0l-1.873.755.14-2.015a.641.641,0,0,0-.148-.456L104.2,68.6l1.959-.49a.64.64,0,0,0,.387-.282l1.072-1.712,1.072,1.712a.64.64,0,0,0,.387.281l1.959.49Zm0,0" transform="translate(-97.562 -61.522)" fill="#282623"/>
    </g>
  </g>
</svg>
