<svg xmlns="http://www.w3.org/2000/svg" xmlns:xlink="http://www.w3.org/1999/xlink" width="24" height="24" viewBox="0 0 24 24">
  <defs>
    <clipPath id="clip-path">
      <rect id="Rectangle_6013" data-name="Rectangle 6013" width="24" height="24" transform="translate(104 872)" stroke="#c7c7c7" stroke-width="1"/>
    </clipPath>
  </defs>
  <g id="Mask_Group_2" data-name="Mask Group 2" transform="translate(-104 -872)" clip-path="url(#clip-path)">
    <g id="svgexport-21" transform="translate(103.982 871.982)">
      <path id="Path_84174" data-name="Path 84174" d="M16.425,23.035h4.407a2.2,2.2,0,0,0,2.2-2.2V16.425a.735.735,0,1,0-1.469,0v4.407a.735.735,0,0,1-.735.735H16.425a.735.735,0,1,0,0,1.469ZM7.611,21.566H3.2a.735.735,0,0,1-.735-.735V16.425a.735.735,0,1,0-1.469,0v4.407a2.2,2.2,0,0,0,2.2,2.2H7.611a.735.735,0,0,0,0-1.469Zm3.673-6.611v4.407a.735.735,0,0,0,1.469,0V14.956a.735.735,0,1,0-1.469,0Zm-1.469,0a.735.735,0,0,0-.735-.735H4.673a.735.735,0,0,0-.735.735v4.407a.735.735,0,0,0,.735.735H9.08a.735.735,0,0,0,.735-.735Zm10.283,0a.735.735,0,0,0-.735-.735H14.956a.735.735,0,0,0-.735.735v4.407a.735.735,0,0,0,.735.735h4.407a.735.735,0,0,0,.735-.735Zm-8.814-2.2h.735a.735.735,0,1,0,0-1.469h-.735a.735.735,0,0,0,0,1.469Zm-6.611,0H8.345a.735.735,0,0,0,0-1.469H4.673a.735.735,0,1,0,0,1.469Zm13.221-1.469h.735v.735a.735.735,0,1,0,1.469,0V10.549a.735.735,0,0,0-.735-.735H17.894a.735.735,0,0,0,0,1.469Zm-2.2.735V8.345h.735a.735.735,0,1,0,0-1.469H14.956a.735.735,0,0,0-.735.735v4.407a.735.735,0,0,0,1.469,0ZM11.283,7.611V9.08a.735.735,0,1,0,1.469,0V7.611a.735.735,0,1,0-1.469,0ZM9.814,4.673a.735.735,0,0,0-.735-.735H4.673a.735.735,0,0,0-.735.735V9.08a.735.735,0,0,0,.735.735H9.08a.735.735,0,0,0,.735-.735Zm6.611-2.2h4.407a.735.735,0,0,1,.735.735V7.611a.735.735,0,0,0,1.469,0V3.2a2.2,2.2,0,0,0-2.2-2.2H16.425a.735.735,0,1,0,0,1.469ZM7.611,1H3.2A2.2,2.2,0,0,0,1,3.2V7.611a.735.735,0,0,0,1.469,0V3.2A.735.735,0,0,1,3.2,2.469H7.611A.735.735,0,0,0,7.611,1Zm4.407,4.407h6.611v2.2a.735.735,0,0,0,1.469,0V4.673a.735.735,0,0,0-.735-.735H12.018a.735.735,0,1,0,0,1.469Z" fill-rule="evenodd"/>
    </g>
  </g>
</svg>
