<svg xmlns="http://www.w3.org/2000/svg" xmlns:xlink="http://www.w3.org/1999/xlink" width="24" height="24" viewBox="0 0 24 24">
  <defs>
    <clipPath id="clip-path">
      <rect id="Rectangle_148037" data-name="Rectangle 148037" width="24" height="24" transform="translate(315 254)" fill="#cda259" stroke="#707070" stroke-width="1"/>
    </clipPath>
  </defs>
  <g id="Mask_Group_95" data-name="Mask Group 95" transform="translate(-315 -254)" clip-path="url(#clip-path)">
    <path id="Icon_awesome-star" data-name="Icon awesome-star" d="M10.382.666,7.937,5.623l-5.47.8A1.2,1.2,0,0,0,1.8,8.465l3.957,3.856-.936,5.447A1.2,1.2,0,0,0,6.563,19.03l4.893-2.572L16.35,19.03a1.2,1.2,0,0,0,1.737-1.262l-.936-5.447,3.957-3.856a1.2,1.2,0,0,0-.663-2.044l-5.47-.8L12.531.666a1.2,1.2,0,0,0-2.149,0Z" transform="translate(315.544 256.415)" fill="#cda259"/>
  </g>
</svg>
